<?xml version="1.0" encoding="utf-8"?>
<!-- Generator: Adobe Illustrator 19.0.0, SVG Export Plug-In . SVG Version: 6.00 Build 0)  -->
<svg version="1.1" baseProfile="tiny" id="Logo" xmlns="http://www.w3.org/2000/svg" xmlns:xlink="http://www.w3.org/1999/xlink"
	 x="0px" y="0px" viewBox="-567 1337 128 64" xml:space="preserve">
<g id="Logo-group">
	<rect id="Logo-background" x="-567" y="1337" fill="#E60900" width="128" height="64"/>
	<path id="Logo-glyphsPath" fill="#FFFFFF" d="M-507,1350.9l0.1,2.9l-0.7,0c-0.1-1.8-0.4-2-3.2-2c-0.1,0-0.3,0-0.6,0v10.3
		c0,1.4,0.4,1.8,1.8,1.8l0,0.5c-1.3,0-2.3,0-3,0c-0.7,0-1.7,0-3.1,0l0-0.5c1.4,0,1.8-0.4,1.8-1.8v-10.3c-0.3,0-0.5,0-0.7,0
		c-2.8,0-3.2,0.2-3.2,2l-0.7,0l0.1-2.9c2.6,0,4.5,0,5.8,0C-511.4,1351-509.5,1351-507,1350.9z M-497,1362v-1.2v-2.7
		c0-2.2-1-3.3-2.9-3.3c-1.1,0-2,0.4-3,1.6v-5.9c-1.6,0.3-1.9,0.3-3.7,0.4l0,0.5c1.3,0,1.4,0.2,1.5,2v1.2v6.3v1.2c0,1.8-0.2,2-1.5,2
		l0,0.5c1.1,0,1.9-0.1,2.5-0.1c0.5,0,1.3,0,2.4,0.1l0-0.5c-1-0.2-1.1-0.3-1.1-2v-1.2v-2.8c0,0,0-0.1,0-0.2c0.1-0.2,0.2-0.5,0.3-0.7
		c0.3-0.7,1-1.1,1.7-1.1c1.2,0,1.7,0.8,1.7,3.2v1.7v1.2c0,1.7-0.1,1.9-1.1,2l0,0.5c1,0,1.8-0.1,2.3-0.1c0.5,0,1.4,0,2.5,0.1l0-0.5
		C-496.9,1364.1-497,1363.8-497,1362z M-494.3,1360c0-3,1.8-5.1,4.5-5.1c1.5,0,2.5,0.5,3.2,1.7c0.5,0.8,0.6,1.3,0.6,2.7h-6
		c0.1,2.9,1.1,4.5,2.9,4.5c1,0,1.9-0.5,2.8-1.6l0.3,0.5c-1.2,1.5-2.3,2.1-3.8,2.1C-492.5,1364.7-494.3,1362.8-494.3,1360z
		 M-492.1,1358.5c1.7,0,2.3-0.1,4-0.3c-0.2-1.8-0.9-2.7-2.1-2.7C-491.3,1355.5-491.9,1356.4-492.1,1358.5z M-550.3,1382.5
		c-1.8,0-1.9-0.1-1.9-1.9v-4.4l0.8,0l1.1,0c1.6,0,1.9,0.3,2,1.8h0.7c0-0.9,0-1.7,0-2.2c0-0.6,0-1.3,0.1-2.6h-0.7c0,1.6-0.4,2-2.1,2
		c-0.3,0-0.6,0-1,0c-0.2,0-0.5,0-0.9,0v-5.7l0.2,0c0.1,0,0.3,0,0.5,0c3,0,3.4,0.2,3.5,2.1l0.8-0.1l-0.1-3.1l-1.3,0l-5.1,0.1l-3.3,0
		l0.1,0.5c1.5,0,1.9,0.5,1.9,2v9.9c0,1.6-0.4,2-1.9,2l-0.1,0.5l3.5,0l5.1,0l1.6,0l0.5-3.5l-0.8,0
		C-547.2,1382-547.9,1382.5-550.3,1382.5z M-538.2,1382.5c-1.8,0-2.8-1.8-2.8-5c0-2.7,0.8-4.1,2.4-4.1c1.2,0,1.6,0.4,2,2.3l0.9-0.1
		l0-2.5c-1.3-0.3-2.1-0.5-2.9-0.5c-3,0-4.9,2.2-4.9,5.6c0,3.3,1.8,5.5,4.6,5.5c1.4,0,2.4-0.5,3.6-1.7l-0.3-0.8
		C-536.5,1382.1-537.2,1382.5-538.2,1382.5z M-522.7,1378.2c0,3.3-2.1,5.5-5.2,5.5c-3,0-5-2-5.1-5.1c0-0.1,0-0.2,0-0.3
		c0-3.5,1.9-5.6,5.2-5.6C-524.9,1372.7-522.7,1375-522.7,1378.2z M-525.3,1378.8c0-3.1-1.2-5.3-3-5.3c-1.5,0-2.3,1.3-2.3,3.9
		c0,0.3,0,0.6,0,0.9c0.2,3,1.2,4.6,2.8,4.6C-526.2,1383-525.3,1381.4-525.3,1378.8z M-509.7,1381.2c0-0.2,0-0.3,0-0.5
		c0,0,0-0.6,0-1.8v-2.5c0-2.4-1.2-3.7-3.2-3.7c-1.3,0-2.2,0.5-3.4,1.8l-0.1-1.9c-1.6,0.3-2,0.4-3.9,0.5l0,0.5c1.4,0,1.6,0.3,1.6,2.2
		v1.3v2.2v1.3c0,2-0.2,2.2-1.6,2.2l0,0.5c1.2,0,4.2,0,5.4,0l-0.1-0.5c-1.1-0.2-1.2-0.4-1.2-2.2v-1.3v-3.1c0-0.2,0.1-0.7,0.3-1
		c0.4-0.8,1.1-1.2,1.9-1.2c1.4,0,1.8,0.9,1.8,3.5v1.9l0,1.3c0,1.9-0.1,2.1-1.2,2.2l0,0.5c1.1,0,4.1,0,5.4,0l0-0.5
		C-509.3,1383-509.7,1382.6-509.7,1381.2z M-495.8,1378.2c0,3.3-2.1,5.5-5.2,5.5c-3,0-5-2-5.1-5.1c0-0.1,0-0.2,0-0.3
		c0-3.5,1.9-5.6,5.2-5.6C-497.9,1372.7-495.8,1375-495.8,1378.2z M-498.3,1378.8c0-3.1-1.2-5.3-3-5.3c-1.5,0-2.3,1.3-2.3,3.9
		c0,0.3,0,0.6,0,0.9c0.2,3,1.2,4.6,2.8,4.6C-499.2,1383-498.3,1381.4-498.3,1378.8z M-476.4,1381.2c0-0.2,0-0.3,0-0.5
		c0-0.1,0-0.7,0-1.8v-2.5c0-2.4-1.1-3.7-3.1-3.7c-1.3,0-2.2,0.5-3.5,2c-0.6-1.4-1.5-2-2.9-2c-1.2,0-2.2,0.5-3.4,1.8l-0.1-1.9
		c-1.6,0.3-2,0.4-3.9,0.5l0,0.5c1.4,0,1.6,0.3,1.6,2.2v1.3v2.2v1.3c0,2-0.2,2.2-1.6,2.2l0,0.5c1.2,0,4.2,0,5.3,0l0-0.5
		c-1.1-0.2-1.2-0.4-1.2-2.2v-1.3v-3.1c0-0.2,0.1-0.7,0.3-1c0.4-0.8,1.1-1.2,1.9-1.2c1.3,0,1.8,0.9,1.8,3.5v1.9v1.3
		c0,1.9-0.1,2.1-1.2,2.2l0,0.5c1.1,0,3.8,0,5,0l0-0.5c-1.1-0.2-1.2-0.4-1.2-2.2v-1.3v-3.1c0,0,0-0.1,0-0.2c0.1-0.3,0.2-0.5,0.3-0.8
		c0.3-0.7,1.1-1.2,1.9-1.2c1.3,0,1.8,0.9,1.8,3.5v1.9v1.3c0,1.9-0.1,2.1-1.2,2.2l0,0.5c1.1,0,4.1,0,5.3,0l0-0.5
		C-476.1,1383-476.4,1382.6-476.4,1381.2z M-468.7,1380.7l0-1.3v-6.8c-1.7,0.3-2.1,0.4-4.1,0.5l0,0.5c1.4,0,1.6,0.3,1.6,2.2l0,1.3
		v2.2l0,1.3c0,2-0.2,2.2-1.6,2.2l0,0.5c1.3,0,2.2-0.1,2.9-0.1c0.7,0,1.6,0,2.9,0.1l0-0.5C-468.5,1383-468.7,1382.7-468.7,1380.7z
		 M-470,1370.6c0.8,0,1.4-0.6,1.4-1.4c0-0.8-0.6-1.4-1.4-1.4c-0.8,0-1.4,0.6-1.4,1.4C-471.4,1370-470.8,1370.6-470,1370.6z
		 M-461.2,1376.6c-1.1-0.7-1.4-1.1-1.4-1.9c0-0.8,0.7-1.3,1.6-1.3c1,0,1.4,0.5,1.7,1.9l1.1,0l0-2.1c-1.7-0.4-2.1-0.5-2.9-0.5
		c-2,0-3.3,1.2-3.3,3.1c0,0.4,0.1,0.8,0.2,1.1c0.2,0.6,0.6,1.1,1.2,1.5c0.3,0.2,0.7,0.5,1.4,1c1.3,0.9,1.8,1.4,1.8,2.2
		c0,0.8-0.6,1.3-1.6,1.3c-1.1,0-1.4-0.3-1.9-1.9l-1.1,0l0.1,2.1c1.3,0.4,2.1,0.6,2.9,0.6c2,0,3.6-1.4,3.6-3.3c0-0.8-0.3-1.5-0.9-2.1
		C-459.4,1377.9-460.2,1377.3-461.2,1376.6z M-450.3,1382.6c-1.4,0-1.8-0.6-1.8-3.2v-5.2h2.3l0.3-1.2h-2.6v-2.8h-0.9
		c-0.5,2.2-1.1,2.9-2.8,3v1h1.3v5.4c0,1.4,0.1,2.1,0.4,2.7c0.4,0.8,1.3,1.3,2.2,1.3c1,0,2-0.2,2.7-0.6v-0.6
		C-449.6,1382.6-449.9,1382.6-450.3,1382.6z"/>
</g>
</svg>
