<?xml version="1.0" encoding="utf-8"?>
<!-- Generator: Adobe Illustrator 17.1.0, SVG Export Plug-In . SVG Version: 6.00 Build 0)  -->
<!DOCTYPE svg PUBLIC "-//W3C//DTD SVG 1.1//EN" "http://www.w3.org/Graphics/SVG/1.1/DTD/svg11.dtd">
<svg version="1.1" id="Layer_1" xmlns="http://www.w3.org/2000/svg" xmlns:xlink="http://www.w3.org/1999/xlink" x="0px" y="0px"
	 viewBox="0 0 1024 1024" enable-background="new 0 0 1024 1024" xml:space="preserve">
<g>
	<rect fill="#E3120B" width="1024" height="1024"/>
	<g>
		<path fill="#FFFFFF" d="M341.6,723.4c40.1-0.7,49.5-11.1,49.5-50.6V352.6c0-39.5-9.4-50.6-49.5-51.3v-29.1h325.5l7.4,110.9h-40.1
			c-14.7-52.7-23.4-68.6-66.8-68.6h-90.2V485H528c41.4,0,53.5-9.7,56.1-49.2h36.1v139.3h-36.1c-2.7-37.4-14-49.2-55.5-49.2h-51.5
			v185.1h96.2c47.5,0,62.2-15.9,67.5-80.4h41.4v121.3H341.6V723.4z"/>
	</g>
</g>
<g id="master" display="none">
</g>
</svg>
